<svg width="72" height="54" viewBox="0 0 72 54" fill="none" xmlns="http://www.w3.org/2000/svg">
<path d="M51.1123 11.0624C51.9126 10.9817 53.033 10.9413 54.4735 10.9413C57.8881 10.9413 60.9559 11.3652 63.6769 12.2131C66.3979 13.0609 68.5854 14.0905 70.2393 15.3017L70.1593 21.7211H69.6791C68.7721 18.6931 66.9314 16.2303 64.1571 14.3327C61.3827 12.3948 58.0482 11.4258 54.1534 11.4258C53.033 11.4258 52.1793 11.4662 51.5924 11.5469C46.1504 12.1525 42.0156 14.2116 39.1878 17.7241C36.3601 21.2366 34.9463 25.4153 34.9463 30.2602C34.9463 34.0553 35.7999 37.7495 37.5072 41.3428C39.2145 44.8957 41.6421 47.8026 44.7899 50.0636C47.9911 52.2841 51.6725 53.3944 55.834 53.3944C59.5154 53.3944 62.3964 52.5264 64.4772 50.7903C66.6113 49.0138 67.9452 46.874 68.4787 44.3708H72C71.2531 47.0759 69.4124 49.357 66.478 51.2142C63.5435 53.0714 59.4887 54 54.3134 54C49.2983 54 44.95 52.9503 41.2686 50.8508C37.6406 48.7514 34.8662 46.006 32.9455 42.6146C31.0782 39.1828 30.1445 35.5895 30.1445 31.8348C30.1445 28.4434 30.9181 25.2538 32.4654 22.2662C34.0126 19.2381 36.3601 16.7148 39.508 14.6961C42.7092 12.6774 46.5772 11.4662 51.1123 11.0624Z" fill="black"/>
<path d="M45.0567 41.9686H47.5376V42.3925H38.0941V41.9686H40.575V1.57458L23.6888 42.3925H22.0082L4.56169 1.15065V20.2879C4.56169 23.437 4.6684 27.0505 4.88181 31.1282C5.14857 35.206 5.49537 38.8194 5.92219 41.9686H8.40311V42.3925H0V41.9686H2.48092L2.72101 40.8785C3.4146 35.3069 3.76139 28.4636 3.76139 20.3484V0.423927H0.480178V0H8.72323L24.7292 37.8505L40.3349 0H47.5376V0.423927H45.0567V41.9686Z" fill="black"/>
</svg>
